<svg width="208" height="45" viewBox="0 0 208 45" fill="none" xmlns="http://www.w3.org/2000/svg">
<path d="M55.84 18.6C55.46 17.9 54.91 17.37 54.19 17.01C53.49 16.63 52.66 16.44 51.7 16.44C50.04 16.44 48.71 16.99 47.71 18.09C46.71 19.17 46.21 20.62 46.21 22.44C46.21 24.38 46.73 25.9 47.77 27C48.83 28.08 50.28 28.62 52.12 28.62C53.38 28.62 54.44 28.3 55.3 27.66C56.18 27.02 56.82 26.1 57.22 24.9H50.71V21.12H61.87V25.89C61.49 27.17 60.84 28.36 59.92 29.46C59.02 30.56 57.87 31.45 56.47 32.13C55.07 32.81 53.49 33.15 51.73 33.15C49.65 33.15 47.79 32.7 46.15 31.8C44.53 30.88 43.26 29.61 42.34 27.99C41.44 26.37 40.99 24.52 40.99 22.44C40.99 20.36 41.44 18.51 42.34 16.89C43.26 15.25 44.53 13.98 46.15 13.08C47.77 12.16 49.62 11.7 51.7 11.7C54.22 11.7 56.34 12.31 58.06 13.53C59.8 14.75 60.95 16.44 61.51 18.6H55.84ZM67.2916 14.52C66.3916 14.52 65.6516 14.26 65.0716 13.74C64.5116 13.2 64.2316 12.54 64.2316 11.76C64.2316 10.96 64.5116 10.3 65.0716 9.78C65.6516 9.24 66.3916 8.97 67.2916 8.97C68.1716 8.97 68.8916 9.24 69.4516 9.78C70.0316 10.3 70.3216 10.96 70.3216 11.76C70.3216 12.54 70.0316 13.2 69.4516 13.74C68.8916 14.26 68.1716 14.52 67.2916 14.52ZM69.8416 16.26V33H64.7116V16.26H69.8416ZM72.5392 24.6C72.5392 22.88 72.8592 21.37 73.4992 20.07C74.1592 18.77 75.0492 17.77 76.1692 17.07C77.2892 16.37 78.5392 16.02 79.9192 16.02C81.0992 16.02 82.1292 16.26 83.0092 16.74C83.9092 17.22 84.5992 17.85 85.0792 18.63V16.26H90.2092V33H85.0792V30.63C84.5792 31.41 83.8792 32.04 82.9792 32.52C82.0992 33 81.0692 33.24 79.8892 33.24C78.5292 33.24 77.2892 32.89 76.1692 32.19C75.0492 31.47 74.1592 30.46 73.4992 29.16C72.8592 27.84 72.5392 26.32 72.5392 24.6ZM85.0792 24.63C85.0792 23.35 84.7192 22.34 83.9992 21.6C83.2992 20.86 82.4392 20.49 81.4192 20.49C80.3992 20.49 79.5292 20.86 78.8092 21.6C78.1092 22.32 77.7592 23.32 77.7592 24.6C77.7592 25.88 78.1092 26.9 78.8092 27.66C79.5292 28.4 80.3992 28.77 81.4192 28.77C82.4392 28.77 83.2992 28.4 83.9992 27.66C84.7192 26.92 85.0792 25.91 85.0792 24.63ZM103.458 30.78H110.778V33H100.728V12.09H103.458V30.78ZM120.847 33.27C119.307 33.27 117.907 32.92 116.647 32.22C115.407 31.52 114.427 30.53 113.707 29.25C113.007 27.95 112.657 26.45 112.657 24.75C112.657 23.07 113.017 21.59 113.737 20.31C114.477 19.01 115.477 18.02 116.737 17.34C117.997 16.64 119.407 16.29 120.967 16.29C122.527 16.29 123.937 16.64 125.197 17.34C126.457 18.02 127.447 19 128.167 20.28C128.907 21.56 129.277 23.05 129.277 24.75C129.277 26.45 128.897 27.95 128.137 29.25C127.397 30.53 126.387 31.52 125.107 32.22C123.827 32.92 122.407 33.27 120.847 33.27ZM120.847 30.87C121.827 30.87 122.747 30.64 123.607 30.18C124.467 29.72 125.157 29.03 125.677 28.11C126.217 27.19 126.487 26.07 126.487 24.75C126.487 23.43 126.227 22.31 125.707 21.39C125.187 20.47 124.507 19.79 123.667 19.35C122.827 18.89 121.917 18.66 120.937 18.66C119.937 18.66 119.017 18.89 118.177 19.35C117.357 19.79 116.697 20.47 116.197 21.39C115.697 22.31 115.447 23.43 115.447 24.75C115.447 26.09 115.687 27.22 116.167 28.14C116.667 29.06 117.327 29.75 118.147 30.21C118.967 30.65 119.867 30.87 120.847 30.87ZM147.447 16.56V33H144.717V30.57C144.197 31.41 143.467 32.07 142.527 32.55C141.607 33.01 140.587 33.24 139.467 33.24C138.187 33.24 137.037 32.98 136.017 32.46C134.997 31.92 134.187 31.12 133.587 30.06C133.007 29 132.717 27.71 132.717 26.19V16.56H135.417V25.83C135.417 27.45 135.827 28.7 136.647 29.58C137.467 30.44 138.587 30.87 140.007 30.87C141.467 30.87 142.617 30.42 143.457 29.52C144.297 28.62 144.717 27.31 144.717 25.59V16.56H147.447ZM160.066 16.26C162.066 16.26 163.686 16.87 164.926 18.09C166.166 19.29 166.786 21.03 166.786 23.31V33H164.086V23.7C164.086 22.06 163.676 20.81 162.856 19.95C162.036 19.07 160.916 18.63 159.496 18.63C158.056 18.63 156.906 19.08 156.046 19.98C155.206 20.88 154.786 22.19 154.786 23.91V33H152.056V16.56H154.786V18.9C155.326 18.06 156.056 17.41 156.976 16.95C157.916 16.49 158.946 16.26 160.066 16.26ZM178.026 16.29C179.446 16.29 180.686 16.6 181.746 17.22C182.826 17.84 183.626 18.62 184.146 19.56V16.56H186.906V33.36C186.906 34.86 186.586 36.19 185.946 37.35C185.306 38.53 184.386 39.45 183.186 40.11C182.006 40.77 180.626 41.1 179.046 41.1C176.886 41.1 175.086 40.59 173.646 39.57C172.206 38.55 171.356 37.16 171.096 35.4H173.796C174.096 36.4 174.716 37.2 175.656 37.8C176.596 38.42 177.726 38.73 179.046 38.73C180.546 38.73 181.766 38.26 182.706 37.32C183.666 36.38 184.146 35.06 184.146 33.36V29.91C183.606 30.87 182.806 31.67 181.746 32.31C180.686 32.95 179.446 33.27 178.026 33.27C176.566 33.27 175.236 32.91 174.036 32.19C172.856 31.47 171.926 30.46 171.246 29.16C170.566 27.86 170.226 26.38 170.226 24.72C170.226 23.04 170.566 21.57 171.246 20.31C171.926 19.03 172.856 18.04 174.036 17.34C175.236 16.64 176.566 16.29 178.026 16.29ZM184.146 24.75C184.146 23.51 183.896 22.43 183.396 21.51C182.896 20.59 182.216 19.89 181.356 19.41C180.516 18.91 179.586 18.66 178.566 18.66C177.546 18.66 176.616 18.9 175.776 19.38C174.936 19.86 174.266 20.56 173.766 21.48C173.266 22.4 173.016 23.48 173.016 24.72C173.016 25.98 173.266 27.08 173.766 28.02C174.266 28.94 174.936 29.65 175.776 30.15C176.616 30.63 177.546 30.87 178.566 30.87C179.586 30.87 180.516 30.63 181.356 30.15C182.216 29.65 182.896 28.94 183.396 28.02C183.896 27.08 184.146 25.99 184.146 24.75ZM206.519 24.15C206.519 24.67 206.489 25.22 206.429 25.8H193.289C193.389 27.42 193.939 28.69 194.939 29.61C195.959 30.51 197.189 30.96 198.629 30.96C199.809 30.96 200.789 30.69 201.569 30.15C202.369 29.59 202.929 28.85 203.249 27.93H206.189C205.749 29.51 204.869 30.8 203.549 31.8C202.229 32.78 200.589 33.27 198.629 33.27C197.069 33.27 195.669 32.92 194.429 32.22C193.209 31.52 192.249 30.53 191.549 29.25C190.849 27.95 190.499 26.45 190.499 24.75C190.499 23.05 190.839 21.56 191.519 20.28C192.199 19 193.149 18.02 194.369 17.34C195.609 16.64 197.029 16.29 198.629 16.29C200.189 16.29 201.569 16.63 202.769 17.31C203.969 17.99 204.889 18.93 205.529 20.13C206.189 21.31 206.519 22.65 206.519 24.15ZM203.699 23.58C203.699 22.54 203.469 21.65 203.009 20.91C202.549 20.15 201.919 19.58 201.119 19.2C200.339 18.8 199.469 18.6 198.509 18.6C197.129 18.6 195.949 19.04 194.969 19.92C194.009 20.8 193.459 22.02 193.319 23.58H203.699Z" fill="black"/>
<path d="M3.75 10.75V20.75H13.75V10.75H3.75ZM11.25 18.25H6.25V13.25H11.25V18.25ZM3.75 23.25V33.25H13.75V23.25H3.75ZM11.25 30.75H6.25V25.75H11.25V30.75ZM16.25 10.75V20.75H26.25V10.75H16.25ZM23.75 18.25H18.75V13.25H23.75V18.25ZM16.25 23.25V33.25H26.25V23.25H16.25ZM23.75 30.75H18.75V25.75H23.75V30.75Z" fill="black"/>
</svg>
